<svg width="32" height="32" viewBox="0 0 32 32" fill="none" xmlns="http://www.w3.org/2000/svg">
<rect width="32" height="32" rx="20" fill="#02101C"/>
<circle cx="8.51343" cy="15" r="3" fill="#E0F0FE"/>
<path d="M13 22C13 24.2091 10.9853 26 8.5 26C6.01472 26 4 24.2091 4 22C4 19.7909 6.01472 18 8.5 18C10.9853 18 13 19.7909 13 22Z" fill="#E0F0FE"/>
<rect x="4" y="19" width="9" height="7" rx="3.5" fill="#E0F0FE"/>
<circle cx="23.5134" cy="8" r="3" fill="#E0F0FE"/>
<path d="M28 15C28 17.2091 25.9853 19 23.5 19C21.0147 19 19 17.2091 19 15C19 12.7909 21.0147 11 23.5 11C25.9853 11 28 12.7909 28 15Z" fill="#E0F0FE"/>
<rect x="19" y="12" width="9" height="7" rx="3.5" fill="#E0F0FE"/>
<path d="M9 22C9 20.8954 9.89596 20 11.0005 20C12.4026 20 13.5974 20 14.9995 20C16.104 20 17 20.8954 17 22V22C17 23.1046 16.1046 24 15 24H11C9.89543 24 9 23.1046 9 22V22Z" fill="#0C436E"/>
<rect x="9" y="20" width="4.5977" height="2" fill="#0C436E"/>
<circle cx="11.2001" cy="22.0001" r="0.6" fill="#F0F8FF"/>
<circle cx="14.8002" cy="22.0001" r="0.6" fill="#F0F8FF"/>
<circle cx="12.9999" cy="22.0001" r="0.6" fill="#F0F8FF"/>
<path d="M15 15C15 13.8954 15.896 13 17.0005 13C18.4026 13 19.5974 13 20.9995 13C22.104 13 23 13.8954 23 15V15C23 16.1046 22.1046 17 21 17H17C15.8954 17 15 16.1046 15 15V15Z" fill="#0C436E"/>
<rect x="18.4001" y="13" width="4.5977" height="2" fill="#0C436E"/>
<ellipse cx="17.1999" cy="14.9999" rx="0.6" ry="0.6" fill="#F0F8FF"/>
<ellipse cx="20.7997" cy="14.9999" rx="0.6" ry="0.6" fill="#F0F8FF"/>
<ellipse cx="18.9999" cy="14.9999" rx="0.6" ry="0.6" fill="#F0F8FF"/>
</svg>
